<svg xmlns="http://www.w3.org/2000/svg" version="1.1" width="256"
     height="256" viewBox="0 0 256 256" xml:space="preserve">

<defs>
</defs>
    <g style="stroke: none; stroke-width: 0; stroke-dasharray: none; stroke-linecap: butt; stroke-linejoin: miter; stroke-miterlimit: 10; fill: none; fill-rule: nonzero; opacity: 1;"
       transform="translate(1.4065934065934016 1.4065934065934016) scale(2.81 2.81)">
	<path d="M 58.364 70.087 H 7.562 C 3.938 70.087 1 67.15 1 63.526 V 26.474 c 0 -3.624 2.938 -6.562 6.562 -6.562 h 50.803 c 3.624 0 6.562 2.938 6.562 6.562 v 37.051 C 64.926 67.15 61.988 70.087 58.364 70.087 z"
          style="stroke: none; stroke-width: 1; stroke-dasharray: none; stroke-linecap: butt; stroke-linejoin: miter; stroke-miterlimit: 10; fill: rgb(255,216,92); fill-rule: nonzero; opacity: 1;"
          transform=" matrix(1 0 0 1 0 0) " stroke-linecap="round"/>
        <path d="M 64.926 55.237 l 19.62 8.636 C 86.644 64.797 89 63.26 89 60.968 V 29.032 c 0 -2.293 -2.356 -3.829 -4.454 -2.906 l -19.62 8.636 V 55.237 z"
              style="stroke: none; stroke-width: 1; stroke-dasharray: none; stroke-linecap: butt; stroke-linejoin: miter; stroke-miterlimit: 10; fill: rgb(232,184,86); fill-rule: nonzero; opacity: 1;"
              transform=" matrix(1 0 0 1 0 0) " stroke-linecap="round"/>
        <path d="M 58.364 71.087 H 7.562 C 3.392 71.087 0 67.695 0 63.525 V 26.474 c 0 -4.169 3.392 -7.562 7.562 -7.562 h 50.803 c 4.169 0 7.562 3.392 7.562 7.562 v 37.051 C 65.926 67.695 62.533 71.087 58.364 71.087 z M 7.562 20.913 C 4.495 20.913 2 23.408 2 26.474 v 37.051 c 0 3.066 2.495 5.562 5.562 5.562 h 50.803 c 3.066 0 5.562 -2.495 5.562 -5.562 V 26.474 c 0 -3.066 -2.495 -5.562 -5.562 -5.562 H 7.562 z"
              style="stroke: none; stroke-width: 1; stroke-dasharray: none; stroke-linecap: butt; stroke-linejoin: miter; stroke-miterlimit: 10; fill: rgb(0,0,0); fill-rule: nonzero; opacity: 1;"
              transform=" matrix(1 0 0 1 0 0) " stroke-linecap="round"/>
        <path d="M 85.827 65.145 c -0.57 0 -1.144 -0.117 -1.684 -0.355 l -19.621 -8.637 c -0.505 -0.223 -0.734 -0.813 -0.512 -1.318 c 0.223 -0.504 0.807 -0.735 1.318 -0.512 l 19.62 8.637 c 0.683 0.299 1.437 0.24 2.064 -0.17 C 87.641 62.38 88 61.716 88 60.968 V 29.032 c 0 -0.749 -0.359 -1.413 -0.986 -1.821 c -0.626 -0.409 -1.378 -0.47 -2.064 -0.169 l -19.62 8.636 c -0.512 0.226 -1.096 -0.007 -1.318 -0.512 c -0.223 -0.505 0.007 -1.096 0.512 -1.318 l 19.62 -8.636 c 1.298 -0.571 2.777 -0.449 3.964 0.324 C 89.292 26.309 90 27.616 90 29.032 v 31.936 c 0 1.416 -0.708 2.723 -1.893 3.496 C 87.416 64.915 86.624 65.145 85.827 65.145 z"
              style="stroke: none; stroke-width: 1; stroke-dasharray: none; stroke-linecap: butt; stroke-linejoin: miter; stroke-miterlimit: 10; fill: rgb(0,0,0); fill-rule: nonzero; opacity: 1;"
              transform=" matrix(1 0 0 1 0 0) " stroke-linecap="round"/>
</g>
</svg>